<svg width="208" height="25" viewBox="0 0 208 25" fill="none" xmlns="http://www.w3.org/2000/svg">
<path d="M0.0227273 24V0.727272H15.7045V4.78409H4.94318V10.3295H14.8977V14.3864H4.94318V19.9432H15.75V24H0.0227273ZM40.1506 8.875H35.1733C35.0824 8.23106 34.8968 7.65909 34.6165 7.15909C34.3362 6.65151 33.9763 6.2197 33.5369 5.86364C33.0975 5.50757 32.59 5.23485 32.0142 5.04545C31.446 4.85606 30.8286 4.76136 30.1619 4.76136C28.9574 4.76136 27.9081 5.06061 27.0142 5.65909C26.1203 6.25 25.4271 7.11364 24.9347 8.25C24.4422 9.37879 24.196 10.75 24.196 12.3636C24.196 14.0227 24.4422 15.4167 24.9347 16.5455C25.4347 17.6742 26.1316 18.5265 27.0256 19.1023C27.9195 19.678 28.9536 19.9659 30.1278 19.9659C30.7869 19.9659 31.3968 19.8788 31.9574 19.7045C32.5256 19.5303 33.0294 19.2765 33.4688 18.9432C33.9081 18.6023 34.2718 18.1894 34.5597 17.7045C34.8551 17.2197 35.0597 16.6667 35.1733 16.0455L40.1506 16.0682C40.0218 17.1364 39.6998 18.1667 39.1847 19.1591C38.6771 20.1439 37.9915 21.0265 37.1278 21.8068C36.2718 22.5795 35.2491 23.1932 34.0597 23.6477C32.8778 24.0947 31.5407 24.3182 30.0483 24.3182C27.9725 24.3182 26.1165 23.8485 24.4801 22.9091C22.8513 21.9697 21.5634 20.6098 20.6165 18.8295C19.6771 17.0492 19.2074 14.8939 19.2074 12.3636C19.2074 9.82576 19.6847 7.66667 20.6392 5.88636C21.5938 4.10606 22.8892 2.75 24.5256 1.81818C26.1619 0.878787 28.0028 0.40909 30.0483 0.40909C31.3968 0.40909 32.6468 0.598484 33.7983 0.977272C34.9574 1.35606 35.9839 1.90909 36.8778 2.63636C37.7718 3.35606 38.4991 4.23864 39.0597 5.28409C39.6278 6.32954 39.9915 7.52651 40.1506 8.875ZM65.0653 12.3636C65.0653 14.9015 64.5843 17.0606 63.6222 18.8409C62.6676 20.6212 61.3646 21.9811 59.7131 22.9205C58.0691 23.8523 56.2206 24.3182 54.1676 24.3182C52.0994 24.3182 50.2434 23.8485 48.5994 22.9091C46.9555 21.9697 45.6563 20.6098 44.7017 18.8295C43.7472 17.0492 43.2699 14.8939 43.2699 12.3636C43.2699 9.82576 43.7472 7.66667 44.7017 5.88636C45.6563 4.10606 46.9555 2.75 48.5994 1.81818C50.2434 0.878787 52.0994 0.40909 54.1676 0.40909C56.2206 0.40909 58.0691 0.878787 59.7131 1.81818C61.3646 2.75 62.6676 4.10606 63.6222 5.88636C64.5843 7.66667 65.0653 9.82576 65.0653 12.3636ZM60.0767 12.3636C60.0767 10.7197 59.8305 9.33333 59.3381 8.20455C58.8532 7.07576 58.1676 6.2197 57.2812 5.63636C56.3949 5.05303 55.357 4.76136 54.1676 4.76136C52.9782 4.76136 51.9403 5.05303 51.054 5.63636C50.1676 6.2197 49.4782 7.07576 48.9858 8.20455C48.5009 9.33333 48.2585 10.7197 48.2585 12.3636C48.2585 14.0076 48.5009 15.3939 48.9858 16.5227C49.4782 17.6515 50.1676 18.5076 51.054 19.0909C51.9403 19.6742 52.9782 19.9659 54.1676 19.9659C55.357 19.9659 56.3949 19.6742 57.2812 19.0909C58.1676 18.5076 58.8532 17.6515 59.3381 16.5227C59.8305 15.3939 60.0767 14.0076 60.0767 12.3636ZM68.7102 0.727272H74.7784L81.1875 16.3636H81.4602L87.8693 0.727272H93.9375V24H89.1648V8.85227H88.9716L82.9489 23.8864H79.6989L73.6761 8.79545H73.483V24H68.7102V0.727272ZM97.9915 0.727272H104.06L110.469 16.3636H110.741L117.151 0.727272H123.219V24H118.446V8.85227H118.253L112.23 23.8864H108.98L102.957 8.79545H102.764V24H97.9915V0.727272ZM127.273 24V0.727272H142.955V4.78409H132.193V10.3295H142.148V14.3864H132.193V19.9432H143V24H127.273ZM146.866 24V0.727272H156.048C157.806 0.727272 159.306 1.04167 160.548 1.67045C161.798 2.29167 162.749 3.17424 163.401 4.31818C164.06 5.45454 164.389 6.79167 164.389 8.32955C164.389 9.875 164.056 11.2045 163.389 12.3182C162.723 13.4242 161.757 14.2727 160.491 14.8636C159.234 15.4545 157.711 15.75 155.923 15.75H149.776V11.7955H155.128C156.067 11.7955 156.848 11.6667 157.469 11.4091C158.09 11.1515 158.552 10.7652 158.855 10.25C159.166 9.73485 159.321 9.0947 159.321 8.32955C159.321 7.55682 159.166 6.9053 158.855 6.375C158.552 5.8447 158.086 5.44318 157.457 5.17045C156.836 4.89015 156.052 4.75 155.105 4.75H151.787V24H146.866ZM159.435 13.4091L165.219 24H159.787L154.128 13.4091H159.435ZM188.401 8.875H183.423C183.332 8.23106 183.147 7.65909 182.866 7.15909C182.586 6.65151 182.226 6.2197 181.787 5.86364C181.348 5.50757 180.84 5.23485 180.264 5.04545C179.696 4.85606 179.079 4.76136 178.412 4.76136C177.207 4.76136 176.158 5.06061 175.264 5.65909C174.37 6.25 173.677 7.11364 173.185 8.25C172.692 9.37879 172.446 10.75 172.446 12.3636C172.446 14.0227 172.692 15.4167 173.185 16.5455C173.685 17.6742 174.382 18.5265 175.276 19.1023C176.17 19.678 177.204 19.9659 178.378 19.9659C179.037 19.9659 179.647 19.8788 180.207 19.7045C180.776 19.5303 181.279 19.2765 181.719 18.9432C182.158 18.6023 182.522 18.1894 182.81 17.7045C183.105 17.2197 183.31 16.6667 183.423 16.0455L188.401 16.0682C188.272 17.1364 187.95 18.1667 187.435 19.1591C186.927 20.1439 186.241 21.0265 185.378 21.8068C184.522 22.5795 183.499 23.1932 182.31 23.6477C181.128 24.0947 179.791 24.3182 178.298 24.3182C176.223 24.3182 174.366 23.8485 172.73 22.9091C171.101 21.9697 169.813 20.6098 168.866 18.8295C167.927 17.0492 167.457 14.8939 167.457 12.3636C167.457 9.82576 167.935 7.66667 168.889 5.88636C169.844 4.10606 171.139 2.75 172.776 1.81818C174.412 0.878787 176.253 0.40909 178.298 0.40909C179.647 0.40909 180.897 0.598484 182.048 0.977272C183.207 1.35606 184.234 1.90909 185.128 2.63636C186.022 3.35606 186.749 4.23864 187.31 5.28409C187.878 6.32954 188.241 7.52651 188.401 8.875ZM191.929 24V0.727272H207.611V4.78409H196.849V10.3295H206.804V14.3864H196.849V19.9432H207.656V24H191.929Z" fill="black"/>
</svg>
